<?xml version="1.0" encoding="utf-8"?>
<!-- Generator: Adobe Illustrator 19.0.0, SVG Export Plug-In . SVG Version: 6.00 Build 0)  -->
<svg version="1.1" id="Layer_1" xmlns="http://www.w3.org/2000/svg" xmlns:xlink="http://www.w3.org/1999/xlink" x="0px" y="0px"
	 viewBox="-143 11 300 100" style="enable-background:new -143 11 300 100;" xml:space="preserve">
<style type="text/css">
	.st0{fill:none;stroke:#212120;stroke-width:4;stroke-miterlimit:10;}
	.st1{fill:#1C212A;stroke:#212120;stroke-miterlimit:10;}
	.st2{fill:none;stroke:#212120;stroke-width:6;stroke-miterlimit:10;}
	.st3{fill:#1C212A;}
</style>
<path id="XMLID_25_" class="st0" d="M-19.4,44.3"/>
<path id="XMLID_18_" class="st1" d="M25.5,60.8L25.5,60.8L25.5,60.8z"/>
<path id="XMLID_27_" class="st2" d="M-21.7,33.4v55h58c0-55,0-55,0-55"/>
<path id="XMLID_6_" class="st0" d="M-20.9,44.2"/>
<line id="XMLID_23_" class="st0" x1="-143" y1="40.4" x2="-22.3" y2="40.4"/>
<line id="XMLID_22_" class="st0" x1="-143" y1="80.6" x2="-22.3" y2="80.6"/>
<line id="XMLID_21_" class="st0" x1="157" y1="80.6" x2="36.3" y2="80.6"/>
<line id="XMLID_5_" class="st0" x1="157" y1="40.4" x2="36.3" y2="40.4"/>
<path id="XMLID_4_" class="st1" d="M24.1,60.7L24.1,60.7L24.1,60.7z"/>
<rect id="XMLID_17_" x="21.5" y="39.5" class="st3" width="3.5" height="29.4"/>
<rect id="XMLID_3_" x="-11.4" y="39.5" class="st3" width="3.8" height="42"/>
<polyline class="st3" points="-11.4,80.9 -7.6,80.9 -7.6,48.2 23.3,81.5 25,81.5 25,38.9 21.5,38.9 21.5,68.3 -7.6,38.9 -11.4,38.9 
	"/>
</svg>
