<?xml version="1.0" encoding="utf-8"?>
<!-- Generator: Adobe Illustrator 19.0.0, SVG Export Plug-In . SVG Version: 6.00 Build 0)  -->
<svg version="1.1" xmlns="http://www.w3.org/2000/svg" xmlns:xlink="http://www.w3.org/1999/xlink" x="0px" y="0px"
	 viewBox="0 0 587 120" style="enable-background:new 0 0 587 120;" xml:space="preserve">
<style type="text/css">
	.st0{fill:#1D212A;}
	.st1{fill:none;stroke:#212121;stroke-width:6;stroke-miterlimit:10;}
	.st2{fill:none;stroke:#212121;stroke-width:4;stroke-miterlimit:10;}
	.st3{fill:#1D212A;stroke:#212121;stroke-miterlimit:10;}
	.st4{font-family:'TimesNewRomanPSMT';}
	.st5{font-size:20.6572px;}
	.st6{font-size:19.9276px;}
</style>
<g id="Layer_2">
	<polygon id="XMLID_4_" class="st0" points="278.9,23.7 275.1,23.7 275.1,65.7 278.9,65.7 278.9,33 309.8,66.3 311.5,66.3 
		311.5,23.7 308,23.7 308,53.1 	"/>
</g>
<g id="Layer_1">
	<path id="XMLID_27_" class="st1" d="M264.8,17.5v55h58c0-55,0-55,0-55"/>
	<path id="XMLID_25_" class="st2" d="M265.6,28.4"/>
	<line id="XMLID_23_" class="st1" x1="-0.1" y1="24.6" x2="264.8" y2="24.6"/>
	<line id="XMLID_22_" class="st1" x1="-0.1" y1="64.8" x2="264.8" y2="64.8"/>
	<line id="XMLID_21_" class="st1" x1="587.1" y1="64.8" x2="322.8" y2="64.8"/>
	<line id="XMLID_3_" class="st1" x1="587.1" y1="24.6" x2="322.8" y2="24.6"/>
	<path id="XMLID_18_" class="st3" d="M310.6,44.9L310.6,44.9L310.6,44.9z"/>
	<text id="XMLID_26_" transform="matrix(1 0 0 1 258.7225 102.4503)" class="st0 st4 st5">iche</text>
	<g id="XMLID_13_">
		<rect id="XMLID_24_" x="300.5" y="83.7" class="st0" width="1.8" height="18.7"/>
		<rect id="XMLID_1_" x="315.1" y="83.7" class="st0" width="1.3" height="18.7"/>
		<polygon id="XMLID_14_" class="st0" points="302.3,83.7 314.6,97.2 315.1,97.2 315.1,102.4 302.3,87.9 		"/>
	</g>
	<text id="XMLID_12_" transform="matrix(1 0 0 1 317.6595 101.9591)" class="st0 st4 st6">ews</text>
	<g id="XMLID_28_">
		<rect id="XMLID_31_" x="241" y="83.7" class="st0" width="1.7" height="18.7"/>
		<rect id="XMLID_30_" x="255" y="83.7" class="st0" width="1.2" height="18.7"/>
		<polygon id="XMLID_29_" class="st0" points="242.7,83.7 254.6,97.2 255,97.2 255,102.4 242.7,87.9 		"/>
	</g>
</g>
</svg>
