<?xml version="1.0" encoding="utf-8"?>
<!-- Generator: Adobe Illustrator 19.0.0, SVG Export Plug-In . SVG Version: 6.00 Build 0)  -->
<svg version="1.1" id="Layer_1" xmlns="http://www.w3.org/2000/svg" xmlns:xlink="http://www.w3.org/1999/xlink" x="0px" y="0px"
	 viewBox="0 81.8 200 39.2" style="enable-background:new 0 81.8 200 39.2;" xml:space="preserve">
<g id="Layer_2">
	<polyline points="8.9,136.7 8.9,167.8 11.9,167.8 11.9,143.6 33.1,167.8 35.2,167.8 35.2,136.7 32.4,136.7 32.4,159.1 11.9,136.7 
		8.9,136.7 	"/>
</g>
<g id="Layer_1_1_">
	
		<text id="XMLID_10_" transform="matrix(1 0 0 1 37.4257 167.8004)" style="font-family:'TimesNewRomanPSMT'; font-size:34.3909px;">iche</text>
	<text id="XMLID_4_" transform="matrix(1 0 0 1 135.5459 166.983)" style="font-family:'TimesNewRomanPSMT'; font-size:33.1762px;">ews</text>
</g>
<g id="Layer_2_1_">
	<polyline points="107.8,136.7 107.8,167.8 110.8,167.8 110.8,143.6 132,167.8 134.1,167.8 134.1,136.7 131.3,136.7 131.3,159.1 
		110.8,136.7 107.8,136.7 	"/>
</g>
<path d="M189.9,167.8"/>
</svg>
